{"asset":{"version":"2.0","generator":"THREE.GLTFExporter r175"},"scenes":[{"name":"AuxScene","nodes":[10]}],"scene":0,"nodes":[{"mesh":0},{"mesh":1},{"mesh":2},{"mesh":3},{"mesh":4},{"mesh":5},{"matrix":[0.10159580189461888,0,-0.10159580189461889,0,0,-0.14367816091954022,0,0,0.10159580189461889,0,0.10159580189461888,0,0,0,0,1],"children":[0,1,2,3,4,5]},{"children":[6]},{"matrix":[1,0,0,0,0,1,0,0,0,0,1,0,-20.266521205698893,5.032609111961277,19.86013802234275,1],"children":[7]},{"children":[8]},{"children":[9]}],"bufferViews":[{"buffer":0,"byteOffset":0,"byteLength":83376,"target":34962,"byteStride":12},{"buffer":0,"byteOffset":83376,"byteLength":55584,"target":34962,"byteStride":8},{"buffer":0,"byteOffset":138960,"byteLength":83376,"target":34962,"byteStride":12},{"buffer":0,"byteOffset":222336,"byteLength":60336,"target":34962,"byteStride":12},{"buffer":0,"byteOffset":282672,"byteLength":40224,"target":34962,"byteStride":8},{"buffer":0,"byteOffset":322896,"byteLength":60336,"target":34962,"byteStride":12},{"buffer":0,"byteOffset":383232,"byteLength":60480,"target":34962,"byteStride":12},{"buffer":0,"byteOffset":443712,"byteLength":40320,"target":34962,"byteStride":8},{"buffer":0,"byteOffset":484032,"byteLength":60480,"target":34962,"byteStride":12},{"buffer":0,"byteOffset":544512,"byteLength":73440,"target":34962,"byteStride":12},{"buffer":0,"byteOffset":617952,"byteLength":48960,"target":34962,"byteStride":8},{"buffer":0,"byteOffset":666912,"byteLength":73440,"target":34962,"byteStride":12},{"buffer":0,"byteOffset":740352,"byteLength":77616,"target":34962,"byteStride":12},{"buffer":0,"byteOffset":817968,"byteLength":51744,"target":34962,"byteStride":8},{"buffer":0,"byteOffset":869712,"byteLength":77616,"target":34962,"byteStride":12},{"buffer":0,"byteOffset":947328,"byteLength":95040,"target":34962,"byteStride":12},{"buffer":0,"byteOffset":1042368,"byteLength":63360,"target":34962,"byteStride":8},{"buffer":0,"byteOffset":1105728,"byteLength":95040,"target":34962,"byteStride":12}],"buffers":[{"byteLength":1200768,"uri":"data:application/octet-stream;base64,"}],"accessors":[{"bufferView":0,"componentType":5126,"count":6948,"max":[45.126712799072266,67.60955047607422,4.599999904632568],"min":[3.821997880935669,2.5739998817443848,-0.6000000238418579],"type":"VEC3"},{"bufferView":1,"componentType":5126,"count":6948,"max":[67.60955047607422,67.30599975585938],"min":[2.6074180603027344,-3.5999999046325684],"type":"VEC2"},{"bufferView":2,"componentType":5126,"count":6948,"max":[0.9999728798866272,0.9999966621398926,1],"min":[-0.9999987483024597,-0.9999995827674866,-1],"type":"VEC3"},{"bufferView":3,"componentType":5126,"count":5028,"max":[101.44237518310547,67.54100036621094,4.599999904632568],"min":[41.024051666259766,2.5739998817443848,-0.6000000238418579],"type":"VEC3"},{"bufferView":4,"componentType":5126,"count":5028,"max":[101.14007568359375,67.24099731445312],"min":[2.6077003479003906,-3.5999999046325684],"type":"VEC2"},{"bufferView":5,"componentType":5126,"count":5028,"max":[0.9934509992599487,1,1],"min":[-0.9997464418411255,-0.9999980330467224,-1],"type":"VEC3"},{"bufferView":6,"componentType":5126,"count":5040,"max":[227.03404235839844,67.58201599121094,4.599999904632568],"min":[158.26611328125,2.444368362426758,-0.6000000238418579],"type":"VEC3"},{"bufferView":7,"componentType":5126,"count":5040,"max":[226.73300170898438,67.2820053100586],"min":[3.625433921813965,-3.5999999046325684],"type":"VEC2"},{"bufferView":8,"componentType":5126,"count":5040,"max":[0.9972696900367737,0.9999999403953552,1],"min":[-0.98345947265625,-0.9999911189079285,-1],"type":"VEC3"},{"bufferView":9,"componentType":5126,"count":6120,"max":[291.3443603515625,67.54100036621094,4.599999904632568],"min":[222.63404846191406,2.514742612838745,-0.6000000238418579],"type":"VEC3"},{"bufferView":10,"componentType":5126,"count":6120,"max":[291.04364013671875,67.24099731445312],"min":[5.595203399658203,-3.5999999046325684],"type":"VEC2"},{"bufferView":11,"componentType":5126,"count":6120,"max":[0.999047577381134,1,1],"min":[-0.999148428440094,-1,-1],"type":"VEC3"},{"bufferView":12,"componentType":5126,"count":6468,"max":[391.20086669921875,67.57011413574219,4.599999904632568],"min":[298.9486083984375,2.5739998817443848,-0.6000000238418579],"type":"VEC3"},{"bufferView":13,"componentType":5126,"count":6468,"max":[391.20086669921875,67.26599884033203],"min":[2.5739998817443848,-3.5999999046325684],"type":"VEC2"},{"bufferView":14,"componentType":5126,"count":6468,"max":[0.9984275102615356,1,1],"min":[-0.9993525743484497,-1,-1],"type":"VEC3"},{"bufferView":15,"componentType":5126,"count":7920,"max":[159.95285034179688,67.55941009521484,4.599999904632568],"min":[101.73200988769531,15.072869300842285,-0.6000000238418579],"type":"VEC3"},{"bufferView":16,"componentType":5126,"count":7920,"max":[159.65187072753906,67.25940704345703],"min":[16.88030242919922,-3.5999999046325684],"type":"VEC2"},{"bufferView":17,"componentType":5126,"count":7920,"max":[0.9974149465560913,1,1],"min":[-0.9996767640113831,-0.9999995231628418,-1],"type":"VEC3"}],"materials":[{"pbrMetallicRoughness":{"baseColorFactor":[0.6375968739867731,0.6653872982754769,0.7083757798856457,1],"metallicFactor":0,"roughnessFactor":0.3},"doubleSided":true,"extensions":{"KHR_materials_transmission":{"transmissionFactor":1},"KHR_materials_volume":{"thicknessFactor":0,"attenuationColor":[1,1,1]}}}],"meshes":[{"primitives":[{"mode":4,"attributes":{"POSITION":0,"TEXCOORD_0":1,"NORMAL":2},"material":0}]},{"primitives":[{"mode":4,"attributes":{"POSITION":3,"TEXCOORD_0":4,"NORMAL":5},"material":0}]},{"primitives":[{"mode":4,"attributes":{"POSITION":6,"TEXCOORD_0":7,"NORMAL":8},"material":0}]},{"primitives":[{"mode":4,"attributes":{"POSITION":9,"TEXCOORD_0":10,"NORMAL":11},"material":0}]},{"primitives":[{"mode":4,"attributes":{"POSITION":12,"TEXCOORD_0":13,"NORMAL":14},"material":0}]},{"primitives":[{"mode":4,"attributes":{"POSITION":15,"TEXCOORD_0":16,"NORMAL":17},"material":0}]}],"extensionsUsed":["KHR_materials_transmission","KHR_materials_volume"]}