<svg id="svg" version="1.1" width="696" height="125" xmlns="http://www.w3.org/2000/svg" xmlns:xlink="http://www.w3.org/1999/xlink" ><g id="svgg"><path id="path0" d="M17.527 4.167 C 17.356 4.878,16.750 7.658,16.180 10.345 L 15.144 15.230 10.218 15.395 L 5.292 15.560 4.906 17.694 C 4.693 18.867,4.380 20.409,4.209 21.121 C 3.906 22.381,4.017 22.414,8.558 22.414 C 12.211 22.414,13.218 22.591,13.218 23.234 C 13.218 23.685,11.518 32.105,9.439 41.945 C 4.057 67.420,3.773 66.854,22.090 67.130 L 33.755 67.306 34.406 64.720 C 35.530 60.258,35.609 60.345,30.460 60.345 C 27.931 60.345,25.859 60.151,25.855 59.914 C 25.851 59.677,27.580 51.152,29.697 40.969 L 33.545 22.455 38.428 22.291 C 43.824 22.109,43.440 22.423,44.431 17.385 L 44.799 15.517 39.917 15.517 C 35.147 15.517,35.043 15.488,35.344 14.224 C 35.513 13.513,36.139 10.668,36.735 7.902 L 37.817 2.874 27.828 2.874 C 17.943 2.874,17.835 2.887,17.527 4.167 M54.942 3.879 C 54.773 4.432,51.786 18.333,48.304 34.770 C 44.822 51.207,41.834 65.237,41.665 65.948 L 41.357 67.241 51.363 67.241 L 61.370 67.241 62.230 63.362 C 62.703 61.228,64.846 51.142,66.993 40.948 L 70.897 22.414 76.264 22.414 C 81.538 22.414,81.626 22.436,81.324 23.707 C 80.341 27.842,72.421 65.929,72.418 66.537 C 72.415 67.107,74.588 67.234,82.274 67.111 L 92.135 66.954 96.927 44.540 C 103.486 13.864,104.300 15.887,85.296 15.630 L 72.407 15.456 72.694 14.194 C 72.852 13.499,73.472 10.668,74.072 7.902 L 75.163 2.874 65.206 2.874 C 56.224 2.874,55.220 2.972,54.942 3.879 M172.184 3.879 C 172.014 4.432,169.027 18.333,165.545 34.770 C 162.063 51.207,159.076 65.237,158.907 65.948 L 158.599 67.241 183.179 67.229 C 218.282 67.211,214.687 70.179,222.139 35.064 C 228.120 6.884,228.133 6.396,222.966 3.724 C 220.249 2.319,172.616 2.465,172.184 3.879 M242.197 3.689 C 235.926 6.419,235.781 6.807,229.037 38.793 C 226.038 53.017,223.445 65.237,223.275 65.948 L 222.967 67.241 233.801 67.241 L 244.636 67.241 245.942 61.063 C 246.660 57.665,247.636 53.139,248.112 51.006 L 248.975 47.126 255.522 47.126 C 260.524 47.126,262.069 47.303,262.069 47.877 C 262.069 48.483,259.597 60.405,258.322 65.948 L 258.024 67.241 268.849 67.241 L 279.674 67.241 285.538 39.511 C 292.586 6.174,292.573 6.433,287.334 3.724 C 285.031 2.533,244.923 2.502,242.197 3.689 M299.606 7.328 C 299.796 9.777,300.624 23.678,301.446 38.218 C 302.269 52.759,303.061 65.237,303.206 65.948 C 303.469 67.233,303.537 67.241,314.134 67.241 L 324.798 67.241 330.704 55.097 L 336.609 42.953 336.969 47.195 C 337.166 49.528,337.502 54.998,337.714 59.351 L 338.099 67.266 349.008 67.110 L 359.917 66.954 375.361 35.099 C 383.855 17.579,390.805 3.150,390.805 3.035 C 390.805 2.920,388.833 2.901,386.422 2.993 L 382.040 3.161 370.531 26.877 C 364.201 39.921,358.959 50.524,358.882 50.440 C 358.805 50.356,358.142 39.619,357.410 26.580 L 356.079 2.874 345.198 2.874 L 334.318 2.874 334.680 7.902 C 334.880 10.668,335.204 16.034,335.402 19.828 L 335.761 26.724 329.859 38.655 C 326.614 45.217,323.902 50.519,323.833 50.437 C 323.765 50.355,323.105 39.619,322.368 26.580 L 321.027 2.874 310.143 2.874 L 299.260 2.874 299.606 7.328 M205.517 11.925 C 205.348 12.478,203.130 22.722,200.588 34.690 C 198.047 46.657,195.812 57.067,195.622 57.822 C 195.278 59.192,182.208 60.108,182.173 58.764 C 182.166 58.527,184.429 47.666,187.201 34.628 L 192.241 10.924 199.033 10.922 C 205.236 10.920,205.798 11.007,205.517 11.925 M269.967 11.638 C 269.818 12.033,268.435 18.369,266.893 25.718 L 264.090 39.080 257.271 39.080 C 252.060 39.080,250.513 38.911,250.711 38.362 C 250.854 37.967,252.239 31.631,253.790 24.283 L 256.609 10.921 263.424 10.920 C 268.637 10.920,270.174 11.088,269.967 11.638 M114.506 16.730 C 109.996 18.962,110.167 18.499,105.197 41.994 C 99.508 68.892,97.966 67.241,128.773 67.241 L 150.479 67.241 151.102 64.340 C 151.444 62.744,151.724 61.192,151.724 60.891 C 151.724 60.560,145.724 60.345,136.456 60.345 C 122.183 60.345,121.206 60.279,121.486 59.339 C 121.650 58.786,121.950 57.557,122.153 56.609 C 123.021 52.542,121.489 52.908,138.363 52.739 L 153.666 52.586 156.701 38.218 C 160.594 19.790,160.608 18.299,156.908 16.385 C 153.903 14.831,117.748 15.125,114.506 16.730 M139.886 23.420 C 139.756 23.973,138.739 28.693,137.626 33.908 C 136.512 39.124,135.461 43.843,135.290 44.397 C 134.935 45.549,124.713 45.958,124.713 44.820 C 124.713 44.500,125.747 39.429,127.011 33.550 C 128.276 27.671,129.310 22.761,129.310 22.638 C 129.310 22.515,131.743 22.414,134.716 22.414 C 139.572 22.414,140.098 22.516,139.886 23.420 " stroke="none" fill="#000000" fill-rule="evenodd"></path></g></svg>